<svg width="1515" height="257" xmlns="http://www.w3.org/2000/svg" version="1.1" enable-background="new 0 0 1920 1080" xml:space="preserve">
 <g>
  <title>Layer 1</title>
  <g id="svg_1">
   <path fill="#ffffff" d="m1375.03435,27.56317c0.00772,-8.6472 7.78462,-12.22078 13.79549,-9.0122c12.00504,6.40822 24.19799,12.39544 36.25994,18.67853c2.25087,1.17245 3.75701,1.26483 5.63743,-0.95352c8.53824,-10.07241 17.22725,-19.99386 25.94169,-29.88595c1.90936,-2.16727 3.86068,-4.89947 6.28338,-5.80379c7.18669,-2.68261 13.28162,4.25252 11.96029,12.43979c-1.46765,9.09385 -2.23952,18.32189 -3.30341,27.49305c-0.64668,5.57558 -1.38378,11.14383 -1.81614,16.73971c-0.08778,1.13615 0.72793,3.02689 1.601,3.47884c12.10163,6.26528 24.31809,12.26551 36.43841,18.48861c7.63194,3.9185 9.94363,11.33043 4.85494,16.38141c-2.25867,2.24186 -5.76732,3.39169 -8.888,4.11691c-12.59235,2.92653 -25.26314,5.4498 -37.87419,8.28469c-0.9447,0.21237 -2.25423,1.62083 -2.37097,2.61637c-1.40302,11.95862 -2.58655,23.94768 -3.88963,35.92072c-0.36074,3.31398 -1.06008,6.58676 -1.36399,9.90467c-0.36682,4.00548 -2.43632,6.50917 -6.04464,8.41793c-5.66474,1.46137 -7.44702,0.88249 -10.09821,-3.65446c-2.18015,-3.73088 -4.08234,-7.65644 -6.08494,-11.50989c-5.36927,-10.33177 -10.72628,-20.6711 -16.52738,-31.85415c-7.04117,1.43658 -14.50889,3.04047 -22.00485,4.46769c-8.00203,1.52354 -16.02003,2.95778 -24.0522,4.27775c-4.15252,0.68243 -6.64213,-2.5902 -7.63066,-5.95701c-0.76823,-2.61607 -0.06863,-6.34807 1.15666,-8.91307c1.67108,-3.49837 4.4617,-6.35893 6.77229,-9.49295c0,0 0.25771,-0.14611 0.5167,-0.41383c7.45828,-8.64011 14.61283,-17.05948 21.89301,-25.34724c1.5431,-1.75665 1.22356,-3.08574 0.25199,-4.87774c-2.20067,-4.05903 -4.23667,-8.22412 -6.37052,-12.32691c-3.12821,-6.01438 -6.71311,-11.80241 -9.28351,-18.08672c-1.86743,-4.56587 -6.38542,-7.83283 -5.75997,-13.61724l-0.00001,0z" id="svg_2" stroke="null"/>
   <path fill="#ffffff" d="m799.18237,155.8912c-2.95019,-6.09326 -5.68835,-11.87036 -8.64502,-18.10861c21.28638,3.25748 41.69336,-0.88 62.21314,-2.1694c5.63391,-0.354 11.26184,-0.80103 16.89367,-1.18826c4.32813,-0.29767 7.81189,1.3836 10.10669,4.98416c4.20032,6.59027 8.19239,13.31338 12.73511,20.73929c1.58752,-6.79102 3.66541,-13.09537 4.41003,-19.55338c0.83228,-7.21881 0.56202,-8.13406 7.61072,-6.02219c7.55811,2.26447 14.72547,6.05573 21.77307,9.73661c6.52271,3.4067 6.83496,9.18576 4.97828,15.72021c-4.42164,15.56122 -8.83741,31.13513 -12.68104,46.84448c-1.6676,6.81598 -1.98608,13.97101 -2.75171,20.99006c-0.12609,1.15496 0.60425,2.40332 0.93885,3.60852c0.50171,0.18957 1.00342,0.37915 1.50512,0.56872c1.8855,-2.98266 4.15174,-5.79285 5.594,-8.97644c8.77942,-19.37817 13.54431,-40.05902 19.04065,-60.47513c2.40832,-8.94546 3.66723,-18.19827 5.56628,-27.28683c0.15552,-0.74442 1.47437,-1.97421 1.8313,-1.84186c9.73291,3.60965 20.29871,5.41214 28.20996,13.02719c3.53589,3.40357 6.58875,6.26001 4.65918,12.271c-6.29443,19.61001 -11.73156,39.49435 -17.95569,59.12826c-2.06347,6.50891 -4.90026,12.95331 -8.46313,18.7652c-5.77039,9.41296 -15.06653,14.5155 -25.51111,17.20795c-6.19995,1.59826 -12.87146,3.79931 -18.91992,2.91565c-7.01733,-1.02515 -13.99402,-4.42853 -20.25159,-8.06659c-9.65039,-5.61048 -13.7655,-14.65619 -13.96362,-25.95862c-0.24024,-13.70972 3.8551,-26.46936 7.30444,-39.40411c1.65503,-6.20649 3.65003,-12.32221 5.81909,-19.57575c-9.81616,0.51508 -19.2749,0.89398 -28.69983,1.67966c-0.99035,0.08252 -2.12292,2.45141 -2.61181,3.94824c-6.07935,18.60922 -11.75733,37.35532 -18.17395,55.84579c-3.2522,9.37159 -7.57141,18.40027 -11.82849,27.38483c-2.33643,4.93121 -5.40259,5.45093 -9.56275,1.51764c-5.16906,-4.88714 -10.06225,-10.14349 -14.50952,-15.69305c-3.70874,-4.62781 -0.4187,-9.72718 0.82312,-14.28736c4.85938,-17.84497 10.21607,-35.5545 15.43518,-53.47665c-2.57446,-0.3487 -4.95361,-0.73834 -7.34765,-0.98303c-8.34339,-0.85285 -11.58838,-7.46723 -15.57105,-13.8162z" id="svg_3"/>
   <path fill="#ffffff" d="m561.85718,247.25906c-0.62085,1.36499 -1.22999,2.3335 -1.75947,3.34388c-3.35479,6.40124 -6.74963,7.44732 -12.19073,3.01983c-3.56854,-2.90375 -6.4823,-6.60693 -9.72778,-9.91418c-5.81379,-5.92462 -5.14057,-12.66272 -2.59803,-19.69135c0.36017,-0.99567 0.37037,-2.11798 0.54102,-3.17242c-9.1803,-1.67133 -12.14105,0.12085 -15.19714,7.88019c-3.04065,7.72003 -6.33002,15.36059 -9.91693,22.84094c-2.75715,5.74988 -6.0116,6.63159 -10.71442,2.40039c-5.15814,-4.64081 -9.86841,-9.90778 -14.02588,-15.46179c-1.42688,-1.90613 -1.04791,-5.56037 -0.68494,-8.30921c0.44977,-3.40521 2.08582,-6.6546 2.52838,-10.05981c0.23548,-1.81226 -0.65197,-3.98029 -1.57537,-5.6955c-3.19171,-5.92871 -6.62189,-11.72912 -10.27771,-18.13257c6.6698,0.47992 12.40606,0.89264 18.5874,1.33741c5.16028,-21.18122 13.5133,-41.2052 15.57983,-63.41315c11.63532,1.55069 23.17432,3.96442 31.19049,13.72595c1.86768,2.27429 2.21021,6.92148 1.44916,10.03571c-2.94385,12.04666 -6.61749,23.91498 -10.11706,36.19262c3.31292,-0.31524 6.59259,-0.44848 9.78527,-1.04614c0.89399,-0.16736 1.94184,-1.59027 2.22589,-2.62707c4.38318,-15.99875 8.65827,-32.02713 12.94025,-48.0535c0.66846,-2.50202 1.24695,-5.02802 2.0174,-8.15286c11.01288,1.51541 21.77557,4.27148 29.99817,12.89367c2.55865,2.68317 3.19653,6.01783 2.07513,10.0568c-8.27051,29.78811 -16.95361,59.42581 -29.13879,87.91098c-0.25538,0.59704 -0.62781,1.14392 -0.99414,2.09118z" id="svg_4"/>
   <path fill="#ffffff" d="m782.89075,173.41901c-8.01935,23.91946 -15.98346,47.44094 -24.08008,70.91677c-0.95459,2.76795 -2.48011,5.38019 -4.01398,7.89826c-3.04309,4.9953 -6.1377,5.33423 -10.77905,1.7431c-8.79212,-6.80273 -13.75287,-15.86542 -16.08234,-26.54822c-1.27966,-5.86865 -2.48779,-11.75378 -3.85284,-17.60235c-0.21601,-0.9259 -1.09198,-1.6977 -2.06,-3.12732c-3.56586,9.74298 -6.70746,18.82355 -10.22388,27.75659c-2.27551,5.78046 -4.90521,11.44428 -7.73187,16.9787c-2.83698,5.55444 -8.68506,6.27789 -12.99713,1.60852c-3.07373,-3.32855 -5.53491,-7.21582 -8.52216,-10.63281c-4.45825,-5.09979 -3.85644,-11.00836 -2.28802,-16.61859c3.95465,-14.14618 8.6029,-28.09705 12.67987,-42.21094c3.8786,-13.42719 7.46625,-26.94071 10.98761,-40.46686c0.69714,-2.67807 0.51196,-5.58581 0.77032,-8.85168c11.28705,1.47485 22.88416,4.22683 30.14514,14.21405c3.39411,4.66854 3.52753,11.74322 5.00238,17.7608c1.23493,5.03888 2.27143,10.12634 3.39582,15.19232c0.55114,0.09369 1.10235,0.18738 1.6535,0.28107c4.06519,-15.68405 8.13037,-31.36813 12.23944,-47.2215c9.41644,1.85248 18.51801,6.17346 26.69232,12.52634c3.11621,2.42184 4.91895,5.51272 3.88892,9.49075c-1.43555,5.54376 -3.19031,11.00485 -4.82397,16.913z" id="svg_5"/>
   <path fill="#ffffff" d="m1167.67956,206.01083c-5.03833,13.56519 -9.95019,26.74506 -14.92102,39.90271c-0.64026,1.69477 -1.49621,3.32587 -2.40454,4.89844c-3.66821,6.35162 -7.6355,7.14087 -13.20947,2.10004c-6.91065,-6.24957 -12.26233,-13.47333 -13.99744,-23.08075c-1.44299,-7.9903 -3.70117,-15.83338 -6.55639,-23.70587c-2.85486,7.85223 -5.51319,15.78326 -8.6178,23.53552c-3.37329,8.42255 -7.05335,16.729 -10.86023,24.96551c-0.76245,1.64954 -1.93689,2.6839 -4.95325,1.85236c-6.1018,-1.68213 -8.46301,-7.06372 -12.69226,-10.49676c-1.66052,-1.34803 -2.44324,-3.73108 -3.79333,-5.51606c-5.34778,-7.06988 -0.67469,-13.84729 1.05749,-20.34601c6.59558,-24.74572 13.84509,-49.31649 20.74793,-73.98132c1.03735,-3.70654 1.52966,-7.56567 2.37231,-11.8537c10.70557,1.54233 21.42554,4.2565 28.50293,13.05075c3.40381,4.22956 3.98413,10.84506 5.4624,16.47998c1.57227,5.99317 2.69409,12.10446 4.96521,18.25705c1.79541,-6.06347 3.70447,-12.0961 5.35633,-18.19836c1.97448,-7.29446 3.75488,-14.64212 5.55029,-21.98361c0.26282,-1.07416 0.32507,-2.26752 0.16907,-3.36136c-0.59229,-4.1521 0.98962,-6.11219 4.95813,-4.1554c7.61889,3.75662 15.17224,7.6947 22.47876,12.02024c5.23754,3.10061 5.86792,7.83822 4.03418,13.64868c-4.7688,15.11139 -9.05958,30.37369 -13.6493,45.96792z" id="svg_6"/>
   <path fill="#ffffff" d="m1425.04529,160.27841c2.9165,29.30811 -17.67786,41.14258 -39.36414,52.59265c10.72778,11.03736 18.89185,24.57025 34.97437,31.60907c-7.5879,3.44568 -14.48584,6.64179 -21.44556,9.69709c-1.90869,0.83789 -3.97058,1.4046 -6.01672,1.83776c-8.30408,1.75769 -12.49659,-4.2265 -16.87915,-9.40179c-4.57447,-5.40186 -8.73255,-11.15631 -13.33082,-17.08966c-3.36669,7.53198 -6.1737,14.63287 -9.66418,21.38013c-3.229,6.24163 -7.54834,7.01056 -12.78662,2.30047c-3.97388,-3.57324 -7.80628,-7.54809 -10.72742,-11.98553c-3.61487,-5.49085 -4.06799,-11.47681 -0.96814,-17.90577c2.49951,-5.18377 3.78406,-10.97851 5.37866,-16.56756c2.35816,-8.26538 4.41175,-16.61792 6.78614,-24.87842c2.11584,-7.36108 4.56152,-14.62741 6.66687,-21.99127c0.27783,-0.97128 -0.34717,-2.43756 -0.97949,-3.39325c-3.7992,-5.74292 -7.72242,-11.40369 -12.37574,-18.22238c3.47278,0 5.10413,0 7.58081,0.00027c2.49927,-0.057 4.15869,-0.04837 5.80652,-0.18185c15.48828,-1.25452 30.96546,-3.40643 46.46387,-3.56842c16.69372,-0.17453 27.71619,8.31808 30.88074,25.76846m-40.70423,0.83045c-2.55652,9.04116 -5.11304,18.08233 -7.66955,27.12353c0.64099,0.34345 1.28198,0.68683 1.92309,1.03027c4.44946,-6.46099 9.36304,-12.66009 13.20386,-19.46469c3.15295,-5.58587 0.96509,-11.08664 -7.4574,-8.68911z" id="svg_7"/>
   <path fill="#ffffff" d="m1069.151,188.5444c-7.01111,10.13104 -16.94873,15.98828 -27.12268,21.5365c-1.5929,0.86865 -3.27332,1.57697 -5.4502,2.61554c10.7013,11.18176 18.92078,24.53784 34.9148,31.77356c-7.42456,3.41803 -14.20056,6.59808 -21.03577,9.64532c-1.91235,0.85254 -3.97546,1.40394 -6.01025,1.93781c-5.65344,1.48316 -9.87708,-1.32849 -13.28076,-5.19293c-4.84913,-5.50543 -9.26124,-11.39569 -13.86133,-17.12042c-1.06702,-1.32776 -2.13965,-2.65094 -3.32556,-4.11969c-3.42457,7.58886 -6.27894,14.71209 -9.80445,21.48602c-3.08044,5.91882 -7.11523,6.91425 -12.06921,2.57336c-4.5127,-3.95416 -8.19885,-8.9079 -11.95532,-13.6538c-4.45105,-5.62348 -1.38428,-11.72419 0.11621,-17.21662c4.65246,-17.03064 10.00964,-33.86865 15.07458,-50.78699c1.22071,-4.07794 3.07569,-8.14325 3.27796,-12.28091c0.11694,-2.39197 -2.40711,-4.96442 -3.87989,-7.37164c-2.72497,-4.45389 -5.55078,-8.84604 -8.7445,-13.91437c20.06018,-1.45508 38.84619,-3.31415 57.67578,-4.03745c17.24316,-0.66238 30.45166,8.88782 32.32153,27.33374c0.99536,9.82013 -0.96753,18.53229 -6.84094,26.79297m-31.83289,-9.33819c1.11402,-1.65265 2.55347,-3.17615 3.27137,-4.98593c1.31469,-3.31428 2.56701,-6.74811 3.04272,-10.24143c0.13867,-1.01858 -2.27576,-3.00549 -3.83227,-3.4469c-1.35792,-0.38504 -4.29969,0.4209 -4.58106,1.31665c-2.74683,8.74256 -5.08179,17.61444 -7.53394,26.44959c0.34107,0.20477 0.68213,0.40948 1.0232,0.61426c2.72534,-3.04548 5.45056,-6.09095 8.60998,-9.70624z" id="svg_8"/>
   <path fill="#ffffff" d="m362.76977,251.20486c-4.57647,1.68464 -8.67492,3.68598 -13.00317,4.76819c-4.71686,1.17932 -9.26538,-0.05969 -12.51709,-3.91223c-5.48975,-6.50415 -10.75482,-13.19775 -16.12195,-19.80554c-0.60174,-0.74078 -1.25232,-1.44177 -2.39081,-2.74622c-2.57751,5.84272 -4.95227,11.27192 -7.37085,16.68152c-0.79711,1.7829 -1.62939,3.55884 -2.58038,5.26276c-3.18097,5.69946 -6.18036,6.56445 -11.2898,2.59045c-5.85858,-4.55664 -11.50512,-9.52789 -13.78076,-16.9696c-0.63122,-2.06403 -0.60168,-4.6258 -0.01794,-6.72028c6.3775,-22.88275 12.86383,-45.73596 19.49963,-68.54516c0.89588,-3.07959 0.41614,-4.98005 -1.68487,-7.4867c-3.82904,-4.5683 -6.92182,-9.75363 -10.92554,-15.55658c5.84973,-0.44772 10.34058,-0.79864 14.83264,-1.13394c15.03443,-1.12222 30.08093,-3.25998 45.10101,-3.08957c17.3241,0.19656 27.86121,9.33997 30.1977,25.8768c2.25738,15.97653 -3.87671,29.03183 -16.68787,38.57718c-6.89508,5.13751 -14.50659,9.31348 -21.82416,13.94183c4.39185,8.23963 23.54053,26.45667 33.51697,31.21796c-4.57434,2.53198 -8.57513,4.74652 -12.95276,7.04913m-27.59277,-64.14874c4.12457,-5.57757 8.61468,-10.93481 12.17908,-16.84997c1.27935,-2.12317 1.21167,-6.03702 0.0777,-8.28608c-0.73755,-1.46267 -4.51075,-1.39474 -6.98841,-2.02905c-1.62677,5.70053 -2.98791,10.46863 -4.34808,15.23697c-1.30646,4.57993 -2.61188,9.16019 -4.05164,14.20975c0.90418,-0.50232 1.21613,-0.63153 1.47522,-0.82977c0.39453,-0.30176 0.75244,-0.65131 1.65613,-1.45185z" id="svg_9"/>
   <path fill="#ffffff" d="m449.49884,161.64548c0.38849,-1.2873 0.58703,-2.21219 0.83148,-3.35077c-11.24811,4.59079 -35.80615,63.63104 -30.79016,79.4892c1.33703,-1.4823 2.76855,-2.53223 3.47986,-3.94489c4.73602,-9.40558 9.24768,-18.92462 14.02911,-28.3064c0.68445,-1.34301 2.41181,-3.0296 3.68915,-3.05743c10.63184,-0.23187 19.30139,4.93213 27.32562,11.11188c1.12763,0.86846 1.04639,4.60241 0.25385,6.47094c-9.65839,22.77295 -22.1864,36.34418 -49.7522,36.26502c-10.51947,-0.03021 -20.02167,-2.84326 -27.69586,-9.94898c-4.87427,-4.5133 -7.7829,-10.48303 -8.67926,-17.36908c-1.97284,-15.15417 1.90411,-29.1289 7.5473,-42.96795c5.64386,-13.84085 14.23206,-25.66471 23.82471,-36.86426c8.7973,-10.27103 20.7984,-13.75086 33.63659,-14.80093c5.9535,-0.48691 12.08509,-0.68448 17.96424,0.16919c16.18829,2.35064 20.55285,12.89105 18.02411,27.20526c-1.6637,9.41778 -5.34723,18.46231 -7.57782,27.8049c-0.8407,3.52099 -0.13642,7.41089 -0.13642,11.52698c-10.2478,-0.27131 -19.95916,-3.28394 -28.72284,-8.71949c-5.98791,-3.71399 -3.55151,-9.82794 -2.30853,-15.03289c1.24097,-5.19703 3.21466,-10.21912 5.05707,-15.6803z" id="svg_10"/>
   <path fill="#ffffff" d="m65.25329,159.46597c-8.13415,7.96356 -12.37753,16.83978 -9.49688,28.17401c2.02441,7.96527 8.73684,10.40986 15.00039,13.71558c4.61454,2.43536 9.21225,5.21381 13.08692,8.66064c4.7872,4.25861 5.36065,9.66797 2.31201,15.35535c-8.21967,15.33435 -20.59509,26.80322 -37.49625,30.12384c-15.64352,3.07361 -31.11212,0.18115 -44.27139,-11.05664c-5.65617,-4.83026 -4.67531,-9.6615 -3.42273,-15.08661c1.37878,-5.97174 3.21675,-11.84125 4.97725,-17.71863c0.49277,-1.64508 1.29794,-3.23114 2.17229,-4.71948c1.41372,-2.40643 3.43081,-2.40314 4.56808,-0.06085c6.50992,13.40723 17.86804,16.117 31.27408,14.56946c1.30081,-0.15015 2.60709,-0.25281 4.14829,-1.49579c-2.65619,-0.59882 -5.35996,-1.03961 -7.96073,-1.82263c-14.52057,-4.37195 -22.50796,-15.06293 -24.97308,-29.14026c-1.836,-10.48462 3.34262,-19.92764 9.22253,-28.60089c15.56204,-22.95514 45.56622,-29.06098 67.34686,-24.86988c9.34229,1.7977 14.18503,10.45722 11.74643,20.82859c-1.8641,7.92788 -3.90298,15.89846 -6.86401,23.4584c-2.40878,6.14997 -3.81516,11.77619 0.74008,18.49469c-11.96911,-0.27704 -23.27179,1.91211 -31.87759,-8.13464c-3.69263,-4.31092 -4.65287,-12.6745 -1.46408,-19.3194c2.0805,-4.33539 4.05801,-8.72018 6.73391,-14.48898c-2.58773,1.46029 -3.88903,2.19464 -5.50238,3.13412z" id="svg_11"/>
   <path fill="#ffffff" d="m1247.10388,192.48294c3.57019,-12.66089 7.39539,-24.86227 10.71826,-37.19891c0.52527,-1.95014 -0.95386,-4.6377 -1.97339,-6.75992c-1.52527,-3.17511 -3.46484,-6.15125 -5.72314,-10.07117c2.62134,-0.34054 4.27783,-0.65036 5.94751,-0.75796c15.90027,-1.02475 31.81628,-1.84369 47.69873,-3.09198c7.31885,-0.57523 14.67944,-1.13633 19.60962,5.29287c4.89782,6.38691 8.86804,13.48499 13.54919,20.74256c-15.50513,1.82351 -29.94763,3.52209 -44.00854,5.17578c-2.27039,7.66006 -4.36585,14.73032 -6.69983,22.60501c3.23535,-0.37085 5.64758,-0.49793 7.99695,-0.95093c3.71313,-0.716 6.12475,0.80866 7.54626,4.08045c2.68457,6.17901 5.2771,12.39813 8.04736,18.9295c-10.28869,1.2973 -19.36694,2.57721 -28.47912,3.53388c-4.54834,0.47747 -6.92151,4.36303 -6.09375,11.64855c4.52905,-0.21313 9.12573,-0.36859 13.71362,-0.66174c5.10669,-0.32635 10.22486,-1.21557 15.29907,-0.98944c2.51038,0.11188 5.70227,1.55481 7.25733,3.47272c5.42566,6.69232 10.27173,13.85449 16.20593,22.03418c-8.40942,0.58484 -14.9126,0.77166 -21.34717,1.5368c-16.01196,1.90405 -31.98889,4.10144 -47.99328,6.07245c-1.19471,0.14703 -2.6366,-0.31793 -3.72461,-0.92602c-7.84595,-4.38538 -13.77222,-10.81855 -17.46473,-18.84858c-1.32543,-2.88256 -0.95202,-7.08374 -0.08032,-10.34234c3.06336,-11.45026 6.68054,-22.75244 9.99805,-34.52576z" id="svg_12"/>
   <path fill="#ffffff" d="m271.08197,231.08023c3.89111,6.10217 7.55914,11.9295 11.638,18.40949c-6.94458,0.60247 -12.79114,1.01892 -18.61701,1.63281c-14.76669,1.55597 -29.58679,2.77783 -44.26394,4.95331c-10.3295,1.53106 -16.151,-4.20057 -22.25003,-10.80988c-8.11447,-8.79321 -4.8451,-17.84119 -1.95319,-27.38672c6.35355,-20.97125 12.25186,-42.08099 18.20767,-63.1705c0.318,-1.12604 -0.27017,-2.74335 -0.90902,-3.86206c-2.29877,-4.02548 -4.8003,-7.93515 -7.42728,-12.21808c1.81436,-0.40125 3.05481,-0.84854 4.31863,-0.92905c17.88535,-1.1391 35.78904,-2.03353 53.65399,-3.42721c6.9939,-0.54566 12.21729,1.52847 16.17231,7.24792c4.27234,6.17838 8.66406,12.2742 13.34009,18.88138c-10.0636,1.03256 -18.92627,1.76172 -27.7342,2.91083c-5.59161,0.72949 -12.46933,0.45584 -16.24957,3.63208c-3.5188,2.9566 -3.70459,9.88361 -5.349,15.06543c-0.59765,1.8833 -1.17026,3.7746 -1.94607,6.2821c2.69036,-0.26013 5.01367,-0.24988 7.22296,-0.7467c4.79388,-1.07807 7.63482,0.94507 9.28448,5.25867c2.24478,5.86981 4.50211,11.7348 6.80368,17.73114c-9.14703,1.1145 -17.63836,2.48468 -26.18313,3.05597c-4.62619,0.30938 -6.77524,2.31427 -7.70011,6.48333c-0.39087,1.76184 -1.03476,3.46759 -1.75976,5.84076c8.81088,-0.61932 17.24453,-0.77081 25.53726,-1.93042c7.01944,-0.9815 11.95932,1.43366 16.16324,7.0954z" id="svg_13"/>
   <path fill="#ffffff" d="m629.64148,226.10941c10.32763,-0.97266 20.22815,-1.84986 30.13922,-2.58436c0.96704,-0.07165 2.21472,0.49598 2.96795,1.17243c7.64313,6.86413 13.26154,15.12128 17.0365,24.6463c-9.44995,0.95361 -18.57397,1.83221 -27.68792,2.80469c-11.51551,1.22876 -23.06397,2.24927 -34.51984,3.90289c-8.10364,1.1698 -14.0675,-1.82214 -19.09253,-7.69153c-4.58862,-5.35968 -9.82764,-10.64502 -8.30493,-18.50049c1.099,-5.66955 3.24359,-11.13391 4.87775,-16.70276c4.01294,-13.67529 7.9989,-27.35845 11.99847,-41.03768c1.36456,-4.66721 2.79242,-9.31678 4.08826,-14.00293c0.99127,-3.58478 1.07306,-6.86051 -1.7508,-10.05518c-2.28491,-2.58493 -3.71344,-5.92688 -6.39593,-10.38608c4.67322,0 8.14374,0.19049 11.58734,-0.03314c14.56573,-0.94583 29.15802,-1.67773 43.67084,-3.16778c8.44549,-0.8671 15.32458,0.49526 20.29571,7.95043c3.91248,5.8675 8.1037,11.54908 12.85657,18.28464c-7.16443,0.49353 -12.67084,0.64887 -18.11737,1.30252c-7.45801,0.89508 -14.96722,1.76459 -22.24829,3.5069c-2.43042,0.5816 -5.07721,3.44473 -6.13758,5.90579c-2.24163,5.20279 -3.50305,10.82779 -5.37274,16.95535c2.3855,-0.25805 4.29401,-0.37274 6.16999,-0.68383c6.99206,-1.15924 10.36657,1.30804 12.16192,8.33349c0.8393,3.28437 2.56922,6.3321 3.72321,9.54889c0.59637,1.66242 0.81628,3.4599 1.14252,4.91217c-10.19092,1.30658 -19.54999,2.79791 -28.9679,3.58783c-4.53925,0.38068 -3.88788,3.95349 -4.67041,6.29736c-0.53504,1.60261 -3.90173,4.1073 0.54999,5.73408z" id="svg_14"/>
   <path fill="#ffffff" d="m146.96203,137.38174c11.54545,-0.90982 22.69291,-1.30535 33.68366,-2.83044c8.37817,-1.16263 13.86298,1.91342 17.68347,8.83289c3.60428,6.52777 6.94318,13.20205 10.90436,20.77893c-2.9982,0 -4.57916,-0.05176 -6.15586,0.00888c-7.41799,0.28524 -14.83627,0.8453 -22.2514,0.80072c-3.56524,-0.02143 -4.80517,1.5708 -5.75333,4.55508c-6.33828,19.94977 -12.56594,39.93976 -19.3135,59.75183c-2.67307,7.84857 -6.29306,15.42145 -10.02728,22.84558c-2.6149,5.19873 -5.99784,6.00434 -10.15085,2.07428c-5.37747,-5.08874 -10.14676,-10.88769 -14.65802,-16.77899c-1.19608,-1.56189 -1.14279,-4.76654 -0.5463,-6.90546c4.39612,-15.7633 9.08911,-31.44366 13.65653,-47.15948c1.2398,-4.26587 2.3695,-8.56372 3.65042,-13.21222c-13.249,1.83441 -19.12229,-6.6413 -23.96442,-16.61627c-2.52005,-5.19141 -5.14819,-10.33038 -8.11203,-16.2627c14.01004,3.57926 27.43994,1.16904 41.35455,0.11737z" id="svg_15"/>
   <path fill="#ffffff" d="m1231.85864,180.31351c-7.03369,20.75958 -13.9906,41.12658 -21.07751,61.4483c-1.07544,3.08392 -2.65723,6.008 -4.17395,8.91785c-3.30982,6.34961 -7.08997,7.73608 -12.39368,2.96313c-5.28748,-4.75836 -10.46411,-10.38519 -13.43237,-16.6933c-1.76233,-3.74493 0.2926,-9.68823 1.56323,-14.39135c6.69421,-24.77845 13.72766,-49.46509 20.53381,-74.21363c1.21179,-4.40622 1.90845,-8.9541 2.96875,-14.04013c11.22742,1.45166 22.60791,4.0567 30.82178,13.6438c1.58057,1.84488 2.4154,5.40012 1.8855,7.78699c-1.80908,8.14834 -4.38062,16.12738 -6.69556,24.57834z" id="svg_16"/>
  </g>
 </g>

</svg>