<svg width="1920" height="1080" xmlns="http://www.w3.org/2000/svg" xml:space="preserve" enable-background="new 0 0 1920 1080" version="1.1">

 <g>
  <title>Layer 1</title>
  <path id="svg_1" d="m1,364c0,-121.33331 0,-242.16663 0,-362.99995c639.99988,-0.00002 1279.99976,-0.00002 1919.99976,-0.00003c-639.99939,1079.99974 -1279.99915,1079.99974 -1919.99929,1079.99986c-0.00047,-238.83319 -0.00047,-477.66657 -0.00047,-716.99988m954.17584,-324.75683c-306.63611,0 -612.56869,0 -918.61556,0c0,165.43505 0,330.6336 0,495.9176m1849.2936,-495.83139c-306.71667,0 -612.75574,0 -918.61145,0m-640.74255,1004.11508c322.21216,-496.15845 16.15558,-496.15845 -290.07427,-496.15845c0,165.36584 0,330.45233 0,496.15869c96.52237,0 192.79831,0 290.07427,-0.00024m1559.354,-496.10767c-1428.37365,518.70325 -1183.39343,518.70325 -938.41321,518.70203c1.66639,0 3.35218,0.12915 4.99097,-0.08814c4.87671,-6.39087 1.96448,-10.96228 -3.69653,-10.96948c-0.99994,-0.00122 -1.99982,-0.00012 -2.99976,-0.00012c-304.47534,0 -608.95065,0.00159 -913.42598,-0.00891c-8.05681,-0.00025 -7.32093,0.8883 -7.32113,-7.12329c-0.00828,-337.80597 -0.00872,-675.61194 0.00238,-1013.41793c0.00027,-8.32134 -0.8856,-7.37935 7.56851,-7.3797c304.97529,-0.01291 609.95058,-0.01078 914.92586,-0.01213c1.66632,-0.00001 3.35314,0.13047 4.99035,-0.09313c0.82855,-0.11316 1.94977,-0.69647 2.28571,-1.38553c2.51465,-5.1585 -0.33692,-9.57774 -6.07031,-9.57776c-309.80823,-0.00093 -619.61646,0.01163 -929.42466,-0.11099c-5.00201,-0.00198 -6.38342,1.15478 -6.38145,6.30224c0.13237,345.97192 0.13003,691.94391 0.0163,1037.91589c-0.0016,4.8479 1.34237,6.06678 6.11492,6.05518c64.16108,-0.15662 128.32268,-0.10486 193.48415,-0.10498m1640,-1038.99955c12.33203,-0.00001 24.66431,-0.02969 36.99622,0.01026c8.41516,0.02726 7.51477,-0.92046 7.51513,7.43454c11.97388,679.57837 11.97034,333.60611 12.1106,-12.3661c0.00207,-5.25902 -1.55017,-6.24171 -6.44263,-6.23991c-309.80847,0.11388 -619.61694,0.11485 -929.42535,-0.00673c-4.98633,-0.00196 -6.4469,1.13453 -6.48389,6.29114c-0.04211,5.88247 3.42792,4.87223 6.80029,4.87229c292.64325,0.00489 585.28644,0.00457 878.92963,0.00451z" fill="#FCFCFD"/>
  <path id="svg_2" d="m955.17584,394.00006c0,47.29291 0,94.08579 0,141.16071c-306.39459,0 -612.31384,0 -918.61556,0c0,-165.284 0,-330.48255 0,-495.9176c306.04687,0 611.97945,0 918.61556,0c0,118.09933 0,236.1781 0,354.75689z" fill="#304476"/>
  <path id="svg_3" d="m1885.85388,380c0,51.95169 0,103.40335 0,155.1488c-306.39819,0 -612.29382,0 -918.61145,0c0,-165.10937 0,-330.30304 0,-495.81942c305.85571,0 611.89478,0 918.61145,0c0,113.35057 0,226.76059 0,340.67062z" fill="#304476"/>
  <path id="svg_4" d="m325.99988,1043.44458c-96.77596,0.00012 -193.0519,0.00012 -289.57427,0.00012c0,-165.70636 0,-330.79285 0,-496.15869c306.22985,0 612.28643,0 918.54662,0c0,165.31745 0,330.409 0,496.15845c-209.625,0 -419.04871,0 -628.97235,0.00012z" fill="#304476"/>
  <path id="svg_5" d="m1885.85388,729c0,104.94482 0,209.38965 0,314.13892c-306.50061,0 -612.51123,0 -918.77759,0c0,-165.30201 0,-330.38697 0,-495.80213c306.0044,0 612.04419,0 918.77759,0c0,60.33045 0,120.74683 0,181.66321z" fill="#304476"/>
  <path id="svg_6" d="m212,1066.04004c-64.66147,0.00012 -128.82307,-0.05164 -192.98415,0.10498c-4.77255,0.0116 -6.11652,-1.20728 -6.11492,-6.05518c0.11373,-345.97198 0.11607,-691.94397 -0.0163,-1037.91589c-0.00197,-5.14746 1.37944,-6.30422 6.38145,-6.30224c309.8082,0.12262 619.61643,0.11006 929.42466,0.11099c5.73339,0.00002 8.58496,4.41926 6.07031,9.57776c-0.33594,0.68906 -1.45716,1.27237 -2.28571,1.38553c-1.63721,0.2236 -3.32403,0.09312 -4.99035,0.09313c-304.97528,0.00135 -609.95057,-0.00078 -914.92586,0.01213c-8.45411,0.00035 -7.56824,-0.94164 -7.56851,7.3797c-0.0111,337.80599 -0.01066,675.61196 -0.00238,1013.41793c0.0002,8.01159 -0.73568,7.12304 7.32113,7.12329c304.47533,0.0105 608.95064,0.00891 913.42598,0.00891c0.99994,0 1.99982,-0.0011 2.99976,0.00012c5.66101,0.0072 8.57324,4.57861 6.01361,9.62061c-0.34741,0.68432 -1.4809,1.23791 -2.31708,1.34887c-1.63879,0.21729 -3.32458,0.08814 -4.99097,0.08814c-244.98022,0.00122 -489.96044,0.00122 -735.44067,0.00122z" fill="#DCDCDC"/>
  <path id="svg_7" d="m1852,27.04055c-293.14319,0 -585.78638,0.00032 -878.42963,-0.00457c-3.37237,-0.00006 -6.8424,1.01018 -6.80029,-4.87229c0.03699,-5.15661 1.49756,-6.2931 6.48389,-6.29114c309.80841,0.12158 619.61688,0.12061 929.42535,0.00673c4.89246,-0.0018 6.4447,0.98089 6.44263,6.23991c-0.14026,345.97221 -0.13672,691.94447 -0.02527,1037.9167c0.00146,4.78027 -1.21948,6.10925 -6.05798,6.10754c-309.9751,-0.11474 -619.95032,-0.10327 -929.92542,-0.10461c-5.42248,0 -8.51904,-5.1106 -5.82092,-9.76782c0.38647,-0.66712 1.56225,-1.11463 2.42572,-1.21692c1.6441,-0.19483 3.32648,-0.07251 4.99292,-0.07251c304.97552,-0.00073 609.95111,0.00122 914.92669,-0.01038c8.29993,-0.00024 7.37269,0.90759 7.37293,-7.56714c0.01233,-337.63959 0.01209,-675.27917 0.00073,-1012.91876c-0.00036,-8.355 0.90003,-7.40728 -7.51513,-7.43454c-12.33191,-0.03995 -24.66419,-0.01027 -37.49622,-0.0102z" fill="#DCDCDC"/>
 </g>
</svg>