<svg width="1800" height="400.00000000000006" xmlns="http://www.w3.org/2000/svg" version="1.1" enable-background="new 0 0 1920 1080" xml:space="preserve">
 <title>logo</title>

 <g>
  <title>Layer 1</title>
  <path transform="rotate(3.51556 1645.51 164.589)" stroke="null" fill="#ffffff" d="m1659.85966,100.20084c2.18794,-2.30344 3.71384,-4.78526 7.12579,-5.38675c6.17065,-1.08777 11.35114,3.93173 10.45367,10.15714c-1.37177,9.51679 -2.40719,19.0819 -3.60112,28.62457c-0.47547,3.80029 -0.99276,7.59535 -1.49907,11.45454c11.1603,5.19675 22.07092,10.2433 32.94416,15.36942c2.1395,1.00862 4.36926,2.04611 6.15121,3.55116c5.02183,4.24119 3.92472,11.25557 -2.26413,13.42857c-4.49045,1.57663 -9.25723,2.42893 -13.95052,3.3512c-8.89383,1.7477 -17.8278,3.29034 -26.7274,5.0098c-0.56683,0.10951 -1.33791,0.95964 -1.41326,1.54283c-1.00073,7.75039 -1.87884,15.51648 -2.81897,23.27486c-0.69397,5.72722 -1.33573,11.46358 -2.19045,17.16743c-0.51931,3.46567 -3.62576,6.29478 -6.84829,6.67754c-4.40563,0.52328 -7.53454,-1.25463 -9.8596,-5.56232c-6.21214,-11.50951 -12.43443,-23.0135 -18.78168,-34.75834c-5.29967,0.98724 -10.36902,1.94047 -15.44189,2.87462c-9.01552,1.66013 -18.04035,3.27114 -27.04632,4.98141c-3.39644,0.64496 -6.93763,-3.6646 -7.48191,-6.45924c-1.16458,-5.97801 3.10402,-9.2474 6.36032,-12.86837c7.22301,-8.032 14.72537,-15.8123 22.01141,-23.78871c0.55996,-0.61292 0.77268,-2.21195 0.3775,-2.9283c-6.09925,-11.05694 -12.22925,-22.09973 -18.56661,-33.02125c-2.87404,-4.95285 -1.34101,-8.39325 1.24923,-11.55975c1.90692,-2.33122 6.77738,-2.48457 10.35561,-0.79036c10.85422,5.13923 21.73919,10.21357 32.59583,15.34773c2.4346,1.15136 4.20373,0.9795 6.2232,-1.24308c7.11825,-7.83439 14.50939,-15.42073 21.78076,-23.11655c0.3014,-0.31895 0.43902,-0.79256 0.86252,-1.3298z" id="svg_2"/>
  <path fill="#ffffff" d="m1121.57685,282.27573c-0.63073,6.56427 -1.09778,12.74365 -1.44092,18.92993c-0.03442,0.62195 0.68262,1.28552 1.92005,3.4494c2.53369,-4.49084 4.86792,-7.84436 6.43091,-11.52527c10.17224,-23.95593 15.59021,-49.38397 22.61731,-74.30789c1.16149,-4.11954 1.02038,-8.60626 1.50781,-13.17105c12.74243,1.54178 24.09302,6.02826 33.21387,15.35065c2.41479,2.46826 2.22143,5.18301 1.47998,8.60305c-5.27942,24.35569 -12.86646,47.99717 -22.28235,70.99851c-6.36792,15.55536 -19.29468,23.29425 -35.46668,26.0697c-3.98352,0.68372 -7.96411,1.75318 -11.96399,1.84302c-2.73132,0.06128 -5.53088,-1.15222 -8.23632,-1.99903c-13.05665,-4.08703 -23.64954,-11.34185 -26.75281,-25.35766c-1.32984,-6.00653 -0.25367,-12.77149 0.77319,-19.02039c1.48962,-9.06543 3.77466,-18.01324 6.00818,-26.93914c1.61292,-6.44635 3.69409,-12.77546 5.82507,-20.03827c-9.60363,0.5224 -18.77319,0.90347 -27.91089,1.66644c-1.14831,0.09586 -2.64746,2.02975 -3.10949,3.40567c-7.44068,22.1611 -14.53552,44.4404 -22.1836,66.52853c-2.60546,7.52442 -6.52173,14.59485 -9.88342,21.96991c-12.67114,-2.6701 -18.67114,-11.94891 -23.34607,-21.5664c-1.56543,-3.22046 1.27149,-8.76972 2.51746,-13.13428c4.81469,-16.86652 9.80188,-33.6839 14.70849,-50.52429c0.13294,-0.45609 0.07935,-0.96649 0.13599,-1.79025c-8.37268,0.56545 -15.56824,-1.38733 -19.79248,-9.37769c-4.0437,-7.64902 -8.09595,-15.29352 -12.63574,-23.86777c13.47778,3.75394 25.96765,1.56726 38.45434,0.61719c13.71607,-1.04364 27.44043,-2.00842 41.13611,-3.27805c6.22876,-0.57736 9.65576,3.33722 12.46545,7.54505c3.79358,5.68103 6.76868,11.9086 10.59119,18.79596c2.08179,-8.99771 4.04724,-17.49207 6.12464,-26.47083c10.60241,1.6875 21.45434,3.54282 30.1416,11.83136c3.69189,3.52246 4.26367,7.33719 3.11157,11.69983c-4.22022,15.98187 -8.59595,31.9227 -12.89307,47.88437c-0.42541,1.58014 -0.71435,3.19696 -1.26538,5.17969z" id="svg_3"/>
  <path fill="#ffffff" d="m699.51203,267.14939c4.89679,-20.70914 12.86335,-40.20878 15.28723,-61.48255c11.02161,1.39462 21.62836,4.21045 30.08936,12.40296c2.99835,2.90319 3.91711,6.2217 2.68292,10.39385c-3.60901,12.19971 -6.98089,24.46955 -10.60754,37.2837c3.47619,-0.4693 7.47479,0.11584 9.6626,-1.60346c2.45776,-1.9314 3.78375,-5.79907 4.7254,-9.07629c3.67725,-12.79761 7.07477,-25.67746 10.4223,-38.56674c0.87958,-3.38672 1.20545,-6.91724 1.86517,-10.8566c11.07068,1.56381 21.56202,4.2482 29.83594,12.3872c3.43884,3.38279 3.58814,7.70618 2.23523,11.8809c-9.15521,28.24948 -18.39917,56.47079 -27.80133,84.63888c-1.18164,3.54022 -3.2746,6.82892 -5.27197,10.03034c-2.24365,3.59631 -5.68585,4.21655 -9.13403,1.79778c-6.9386,-4.86712 -12.73694,-11.15942 -15.60383,-18.92102c-1.34973,-3.65393 1.30475,-8.78887 2.1543,-13.25091c0.11914,-0.62585 0.29242,-1.24146 0.66486,-2.80066c-4.28016,0.50183 -8.09253,0.77826 -11.8136,1.51556c-0.83923,0.16639 -1.52576,1.86859 -2.00116,2.98377c-3.65827,8.5824 -7.02667,17.29584 -10.92548,25.76587c-3.26031,7.08288 -7.52398,8.05548 -13.31695,2.76989c-4.2013,-3.83343 -7.69611,-8.49523 -11.20313,-13.02227c-4.87323,-6.29077 -0.9389,-12.65888 0.5177,-18.85028c0.67743,-2.87952 0.40741,-4.65155 -1.38153,-7.17957c-3.76721,-5.3233 -6.69507,-11.24066 -9.94531,-16.87598c6.71362,-0.33349 12.74078,-0.63287 18.86285,-1.36437z" id="svg_4"/>
  <path fill="#ffffff" d="m920.98219,292.51297c-4.05213,9.91504 -7.83197,19.52149 -12.04181,28.93561c-1.46515,3.27631 -3.07849,7.42706 -8.22894,5.98578c-1.19233,-0.33374 -2.50379,-0.94342 -3.31135,-1.8335c-4.4815,-4.93963 -9.68878,-9.52057 -12.88,-15.2149c-1.8197,-3.24701 -1.12122,-8.59912 -0.08392,-12.62378c3.16253,-12.27045 7.15277,-24.32459 10.61078,-36.52259c4.4992,-15.87054 8.87231,-31.77822 13.09667,-47.72372c0.60895,-2.29846 0.08454,-4.89722 0.08454,-7.90219c11.50751,1.51977 22.75836,4.09427 29.79053,13.32956c3.86328,5.07364 4.30999,12.81277 6.05468,19.41418c1.24567,4.71326 2.08795,9.53311 3.11023,14.30539c0.5951,0.08112 1.19019,0.16223 1.78528,0.24335c3.94421,-15.50244 7.88843,-31.00491 11.95838,-47.0015c9.99298,2.08747 20.3941,6.43326 28.79657,14.62299c1.49597,1.45816 2.59155,4.71613 2.06542,6.65219c-8.47338,31.18384 -17.17443,62.32306 -30.54425,91.86694c-4.86169,10.74323 -9.24163,11.20063 -17.52063,2.66303c-6.94268,-7.15955 -10.40307,-16.02081 -12.5382,-25.52161c-1.37403,-6.11413 -2.62604,-12.25567 -5.14124,-18.55529c-1.65314,4.83197 -3.30627,9.66394 -5.06274,14.88006z" id="svg_5"/>
  <path fill="#ffffff" d="m560.10432,305.68344c-2.53717,5.89185 -4.83649,11.48352 -7.5412,16.87158c-3.01746,6.01124 -5.86487,6.57483 -11.28973,2.79596c-10.1825,-7.09283 -14.409,-17.68676 -17.07929,-29.1557c-1.42151,-6.10559 -2.6344,-12.25976 -5.07526,-18.54644c-0.99835,2.81085 -1.87994,5.66986 -3.01513,8.42431c-5.23706,12.70709 -10.55414,25.38123 -15.82172,38.07581c-1.70959,4.12018 -4.63959,3.99853 -8.11181,2.53131c-10.64808,-4.49933 -17.60535,-19.02802 -14.50379,-30.00128c7.71143,-27.28357 15.37109,-54.58203 22.91681,-81.91172c0.7652,-2.77133 0.61407,-5.79565 0.92969,-9.1438c10.93017,1.4809 21.15619,4.50309 29.16479,12.50266c1.7254,1.72348 2.78314,4.45673 3.37616,6.91141c2.19019,9.06564 4.05664,18.2095 6.78882,27.44235c4.82971,-15.32065 11.16516,-30.17722 11.64117,-46.9249c11.17304,2.35569 21.34821,6.63727 29.68024,14.35685c1.79212,1.6604 3.10883,5.64831 2.42627,7.888c-7.89545,25.90643 -16.21789,51.68267 -24.48602,77.8836z" id="svg_6"/>
  <path fill="#ffffff" d="m1336.60346,229.25821c1.83557,8.33954 3.48694,16.3002 5.13819,24.26087c0.47656,0.03234 0.953,0.06469 1.42944,0.09704c4.13257,-15.70657 8.26514,-31.41318 12.53113,-47.62692c10.14892,2.21896 20.36084,6.29138 28.3136,14.49804c1.68176,1.73545 2.55432,5.65781 1.89502,8.04691c-8.70642,31.54877 -17.30079,63.16364 -31.25904,92.94141c-2.94348,6.27923 -8.07251,8.53161 -11.73779,4.8302c-6.75464,-6.82135 -13.59717,-13.7652 -15.52332,-23.9585c-1.51416,-8.013 -3.703,-15.89844 -5.59216,-23.84051c-0.44653,-0.04694 -0.89294,-0.09388 -1.33935,-0.14087c-1.45533,4.0354 -2.75599,8.13495 -4.39588,12.09381c-4.56347,11.01745 -8.92407,22.14038 -14.05139,32.89428c-2.86951,6.01886 -6.1012,6.12708 -11.03113,1.34906c-3.43847,-3.33239 -6.68188,-6.88989 -9.77881,-10.5448c-3.77441,-4.45452 -4.61865,-9.34423 -2.80517,-15.17077c5.3291,-17.12189 10.39404,-34.3316 15.22571,-51.60101c3.83642,-13.7118 7.17663,-27.56238 10.80249,-41.60376c8.31323,1.44778 16.97339,3.62625 24.43628,9.26022c4.6604,3.51828 7.05578,8.12259 7.74218,14.2153z" id="svg_7"/>
  <path fill="#ffffff" d="m1258.30317,303.55612c5.16809,4.28943 10.08362,8.331 15.28943,12.61115c-6.08325,4.10437 -13.36829,7.35852 -21.21887,10.06622c-7.15027,2.46601 -12.51355,1.39527 -17.13574,-4.01269c-5.10291,-5.97065 -9.86414,-12.23304 -14.78663,-18.35828c-0.67358,-0.83813 -1.41821,-1.61908 -2.51049,-2.85809c-2.75013,6.27356 -5.28211,12.0437 -7.80591,17.81744c-0.1969,0.45007 -0.29065,0.94855 -0.51135,1.38458c-4.67298,9.2356 -10.78089,9.79834 -17.6521,1.61426c-2.09522,-2.49567 -3.96216,-5.20764 -6.23609,-7.5238c-5.19861,-5.29529 -3.83484,-11.41236 -2.14087,-17.34424c4.54602,-15.92029 9.45423,-31.73676 14.08997,-47.63202c1.74658,-5.98874 3.18811,-12.069 4.64294,-18.1377c0.23291,-0.97128 0.14771,-2.33071 -0.37683,-3.12176c-3.81079,-5.74649 -7.77197,-11.39316 -12.43786,-18.16306c21.53356,-1.47607 41.29797,-3.8778 61.0614,-3.86911c17.18872,0.0076 28.98694,11.06458 29.66919,30.10724c0.60998,17.02783 -8.08558,28.45624 -21.12378,37.44647c-5.61329,3.87061 -11.74671,6.987 -18.4408,10.9137c5.81506,6.29706 11.59338,12.55438 17.62439,19.05969m-19.08227,-50.27209c2.54577,-3.8678 5.57678,-7.51767 7.44958,-11.68771c1.06946,-2.38129 1.13208,-6.06962 -0.02918,-8.29401c-0.75915,-1.45398 -4.52404,-1.33899 -6.91979,-1.92127c-2.95264,10.30436 -5.6344,19.6633 -8.31617,29.02225c0.36536,0.32337 0.73072,0.64673 1.09607,0.97009c2.09412,-2.50988 4.18824,-5.01977 6.71949,-8.08935z" id="svg_8"/>
  <path fill="#ffffff" d="m1629.11946,232.147c0.26965,8.26874 0.75549,16.35474 -4.06983,22.97815c-4.41687,6.06269 -9.30359,12.0481 -15.02222,16.823c-5.80871,4.85016 -12.88818,8.17835 -20.031,12.55255c10.09765,11.1222 18.85315,23.79029 33.55066,31.13263c-7.02796,4.44879 -14.16748,7.76477 -21.8822,10.49732c-7.57911,2.68444 -13.02601,1.32605 -17.92579,-4.38117c-3.84643,-4.48034 -7.60095,-9.04229 -11.30005,-13.64532c-1.70849,-2.12586 -3.18762,-4.43598 -5.31603,-7.42945c-2.69483,6.11066 -5.06458,11.54139 -7.48755,16.94837c-0.86499,1.93017 -1.77466,3.84985 -2.80884,5.69299c-2.97156,5.29517 -6.51184,6.34308 -11.13623,2.15894c-4.9458,-4.47492 -9.74073,-9.45472 -13.2157,-15.07148c-1.68311,-2.72027 -0.9729,-7.61022 -0.01428,-11.15795c4.43713,-16.4206 9.34497,-32.71405 14.07776,-49.05494c1.55847,-5.38131 3.16796,-10.74929 4.61901,-16.15963c0.83692,-3.12079 0.36011,-5.52329 -2.13354,-8.37717c-3.84631,-4.40207 -6.41345,-9.92187 -9.92969,-15.62717c19.16919,-1.50332 37.09937,-3.08517 55.05603,-4.26495c15.82202,-1.03949 31.95288,6.12201 34.96949,26.38528m-34.73646,12.22806c0.63367,-3.58203 1.8501,-7.21643 1.53577,-10.71322c-0.09082,-1.01169 -4.57507,-1.6286 -7.16345,-2.46473c-1.66004,5.80991 -3.02173,10.57087 -4.38049,15.33261c-1.30994,4.59067 -2.61695,9.1821 -3.92518,13.77323c0.41468,0.24628 0.82935,0.49249 1.24402,0.73877c4.12085,-5.33222 8.24158,-10.66443 12.68933,-16.66666z" id="svg_9"/>
  <path fill="#ffffff" d="m399.79743,226.5781c-5.24243,-4.63379 -8.57293,-9.86734 -9.47122,-15.63538c11.25598,-1.771 21.91699,-3.87271 32.68015,-4.99588c7.45388,-0.7778 15.06363,0.07843 22.57598,-0.31961c7.19535,-0.38129 13.70182,1.5231 19.75593,4.97671c11.79302,6.72748 16.1582,22.99659 12.41095,36.76871c-4.13489,15.19666 -15.47641,23.93713 -28.21997,31.37177c-3.26389,1.90417 -6.70536,3.50396 -10.44129,5.43829c10.65659,10.96069 18.86691,24.35413 34.32691,31.5462c-4.94623,2.71064 -9.55063,5.5719 -14.44385,7.79865c-3.34842,1.5238 -7.21735,1.87109 -10.64606,3.25763c-7.83209,3.16717 -12.36816,-1.90674 -16.64612,-6.71826c-5.25333,-5.90851 -9.91,-12.34748 -15.28888,-19.14374c-2.34662,5.49634 -4.43451,10.54669 -6.66205,15.5346c-1.06131,2.37641 -2.31594,4.6756 -3.60992,6.93708c-2.75128,4.80847 -5.93039,6.07123 -9.95367,2.56506c-5.35431,-4.66608 -10.37482,-9.96075 -14.41315,-15.76813c-1.57611,-2.26654 -0.78574,-6.85058 0.10391,-10.05194c6.18298,-22.24926 12.74072,-44.39428 18.9581,-66.63431c0.5585,-1.99777 -0.44177,-4.43124 -1.01575,-6.92745m32.32181,32.67474c4.22443,-5.48773 8.69412,-10.81116 12.53916,-16.55292c1.33078,-1.98724 1.73144,-5.11032 1.35382,-7.52658c-0.20954,-1.34079 -2.78162,-2.85281 -4.51752,-3.22705c-1.1824,-0.25491 -3.66425,1.03537 -4.01773,2.13297c-2.63461,8.18084 -4.89121,16.48382 -7.18979,24.76971c-0.04505,0.16248 0.83905,0.58258 1.83206,0.40387z" id="svg_10"/>
  <path fill="#ffffff" d="m585.48811,292.93051c0.80291,-10.36963 2.6773,-20.06457 6.11279,-29.57556c4.15033,-11.48999 9.98071,-21.98605 17.33331,-31.61081c4.45612,-5.8331 9.07288,-11.76868 14.61365,-16.48874c6.35999,-5.41797 14.48749,-8.2481 22.84131,-8.72873c9.04516,-0.52035 18.25275,-0.65359 27.21246,0.46372c8.89911,1.10974 14.5249,8.65961 14.29828,18.62521c-0.15076,6.62824 -1.82348,13.2778 -3.32678,19.79981c-1.01746,4.41384 -3.51361,8.52224 -4.26801,12.95126c-0.75457,4.43018 -0.16559,9.08929 -0.16559,14.203c-10.67034,-0.45977 -20.5921,-3.23333 -29.35839,-9.01458c-5.82611,-3.84217 -3.27619,-9.86542 -1.87909,-15.05329c1.67907,-6.23507 3.83923,-12.34057 5.91217,-18.88443c-11.55249,4.85834 -36.0293,63.83231 -31.00067,79.60239c1.33465,-1.48279 2.76379,-2.53473 3.4754,-3.948c4.73529,-9.40436 9.24683,-18.92169 14.02783,-28.30212c0.68445,-1.3429 2.41059,-3.02997 3.6875,-3.05799c10.63049,-0.23334 19.29871,4.9303 27.32275,11.10761c1.12909,0.86926 1.05451,4.60248 0.26246,6.46924c-9.65436,22.75482 -22.16486,36.35046 -49.7392,36.26745c-10.5083,-0.03161 -20.3335,-2.54626 -27.57361,-10.03869c-4.14105,-4.28547 -6.24164,-10.66846 -8.77106,-16.32605c-1.08172,-2.41962 -0.91497,-5.39747 -1.01751,-8.4607z" id="svg_11"/>
  <path fill="#ffffff" d="m129.45315,223.01084c9.79216,-9.84287 21.96977,-13.81067 34.79965,-16.18671c9.17563,-1.69931 18.40195,-2.05832 27.45268,0.92489c6.39739,2.10868 9.08135,6.1637 9.49933,12.84867c0.61437,9.82596 -2.32939,18.86786 -5.68142,27.80334c-2.55509,6.81104 -5.98322,13.40827 -0.79241,20.7475c-0.31994,0.47565 -0.63991,0.95136 -0.95985,1.427c-7.8111,-1.07031 -15.99552,-1.02582 -23.34134,-3.48559c-9.78469,-3.27643 -14.63005,-13.40839 -8.25125,-25.75785c1.85283,-3.58703 3.44829,-7.307 5.8083,-12.34683c-2.4086,1.04733 -3.87387,1.34641 -4.89976,2.18378c-8.60822,7.02621 -11.64684,16.32098 -9.83741,26.99658c1.02497,6.04724 5.45774,9.88592 10.87815,12.56097c4.84832,2.39277 9.89294,4.52436 14.37356,7.49189c5.92345,3.92315 9.80663,12.10388 4.65033,20.25561c-8.88077,14.03998 -20.35879,25.32038 -36.97523,28.41248c-16.14943,3.00512 -31.66306,-0.09119 -44.7137,-11.33887c-5.63629,-4.85767 -3.81197,-10.94702 -2.80992,-16.63257c0.95654,-5.42749 2.91807,-10.69379 4.66024,-15.95727c0.53675,-1.62165 1.75235,-3.03705 2.74813,-4.48432c1.89863,-2.75952 3.60228,-2.4024 4.69995,0.58136c4.43121,12.04529 22.73802,17.09223 34.75091,13.04163c0.21105,-0.07117 0.2847,-0.54962 -0.10241,0.26098c-6.29279,-2.92224 -12.99231,-5.18017 -18.75879,-8.88879c-12.01073,-7.72449 -16.5418,-24.67029 -11.78034,-37.87576c3.08716,-8.56198 8.31435,-15.68277 14.5826,-22.58212z" id="svg_12"/>
  <path fill="#ffffff" d="m328.56709,297.15592c9.12445,-0.61304 18.24273,-1.38941 27.37735,-1.73176c2.48468,-0.09313 5.57351,0.4101 7.43267,1.86054c7.73542,6.03473 12.13291,14.47516 16.21824,23.76038c-7.52802,0.53991 -14.39304,0.81152 -21.20423,1.56775c-13.30746,1.47753 -26.65155,2.8189 -39.85486,4.98303c-11.84933,1.9422 -18.10696,-5.22541 -24.71011,-12.90674c-5.20148,-6.05078 -4.547,-12.53113 -2.57538,-19.20899c4.32666,-14.65466 8.95163,-29.22094 13.33182,-43.86016c2.35373,-7.86652 4.24911,-15.87403 6.73791,-23.69489c1.69471,-5.32547 -2.76214,-8.00143 -4.34027,-11.90366c-0.80017,-1.9786 -1.80172,-3.87582 -2.73297,-5.85382c1.14243,-0.57312 1.55704,-0.95038 1.99127,-0.97451c15.2479,-0.84879 30.49884,-1.64335 45.74613,-2.50269c2.96948,-0.16739 5.96274,-0.3667 8.88098,-0.90109c7.47494,-1.36884 12.9675,1.82873 17.12051,7.54934c4.31366,5.94181 8.2175,12.18116 12.16501,18.08756c-13.07596,1.82211 -25.61859,3.73166 -38.20941,5.23883c-4.56549,0.54651 -6.98328,2.25922 -7.85889,6.99277c-0.96029,5.19146 -2.82492,10.21576 -4.50653,16.04437c2.53089,-0.23975 4.64841,-0.20752 6.64908,-0.67511c5.1872,-1.21234 8.25226,0.98767 10.01004,5.69238c2.1351,5.71473 4.31143,11.41413 6.51703,17.24469c-9.09006,1.10413 -17.43149,2.35712 -25.81934,3.04078c-4.58902,0.37402 -7.32605,2.04754 -8.03607,6.72821c-0.19506,1.2857 -0.88018,2.49707 -1.47653,4.34289c0.29147,0.76019 0.71903,0.92004 1.14655,1.0799z" id="svg_13"/>
  <path fill="#ffffff" d="m865.62598,282.34043c-7.97698,0.95507 -15.59277,1.73174 -23.221,2.35577c-4.65058,0.38037 -8.62757,1.30792 -9.38892,6.99359c-0.2503,1.86877 -1.29425,3.63135 -2.07934,5.71918c9.34472,-0.58069 18.46179,-0.54468 27.36889,-1.89447c6.92957,-1.05017 11.36701,2.30951 14.82929,6.77582c4.31958,5.57226 7.46911,12.05151 11.48614,18.74273c-7.71545,0.53485 -14.57068,0.7746 -21.36835,1.53101c-13.65734,1.51965 -27.33148,3.00879 -40.9071,5.10382c-11.10974,1.7146 -17.40027,-4.85761 -23.57361,-12.16187c-5.00403,-5.92083 -5.57367,-12.33087 -3.23975,-19.68469c5.29139,-16.67175 10.13758,-33.48578 15.0683,-50.27032c1.96637,-6.69364 3.73243,-13.44831 5.44349,-20.21213c0.2398,-0.94806 -0.0802,-2.2818 -0.61622,-3.14029c-2.45568,-3.93292 -5.08044,-7.76029 -8.15661,-12.39765c2.75909,-0.29132 4.63995,-0.55676 6.53003,-0.67898c16.20782,-1.04782 32.52881,-1.24136 48.58569,-3.40134c10.08466,-1.35653 16.27936,2.51276 21.5202,9.78812c3.75305,5.20996 7.08558,10.7229 10.79926,16.39624c-9.47192,0.95288 -18.06067,1.64621 -26.59863,2.73669c-5.56379,0.71064 -11.07087,1.91977 -16.55927,3.1091c-0.86719,0.1879 -1.93402,1.34079 -2.1698,2.24097c-1.23175,4.70456 -2.16437,9.48657 -3.33368,14.20886c-0.4198,1.69544 -1.2099,3.2992 -2.06201,5.55695c2.93756,-0.29767 5.70392,-1.06665 8.30774,-0.69543c2.29797,0.32757 5.63776,1.37792 6.39441,3.06268c2.89636,6.44916 4.93689,13.28284 6.94085,20.21564z" id="svg_14"/>
  <path fill="#ffffff" d="m1480.71089,208.59287c11.526,-1.0278 22.5819,-2.2331 33.66919,-2.70587c3.12988,-0.13349 6.98583,1.09118 9.41284,3.05041c7.51696,6.06802 12.0653,14.46545 16.59704,23.00192c-8.76867,0.8834 -17.03088,1.61331 -25.26477,2.58414c-4.8706,0.57428 -9.69678,1.52664 -14.54211,2.31424c-3.15174,0.51224 -4.91406,1.9328 -5.63758,5.4736c-1.16955,5.72327 -3.23779,11.26294 -5.12756,17.54944c2.72193,-0.30896 4.99451,-0.38934 7.18579,-0.85321c4.36243,-0.92352 7.43103,0.31482 9.08582,4.64258c2.32739,6.08716 4.74194,12.14105 7.10315,18.1679c-9.09253,1.28962 -17.56531,3.11262 -26.09986,3.47303c-5.27405,0.22265 -7.24548,2.24853 -7.98413,6.84625c-0.27197,1.69159 -0.86255,3.33185 -1.35168,5.15936c9.9956,-0.56738 19.36926,-1.40014 28.7478,-1.46075c3.07764,-0.0199 7.2312,1.05774 9.05432,3.19879c5.578,6.55121 10.26294,13.86292 16.052,21.9339c-7.7633,0.55121 -13.93127,0.73675 -20.03247,1.4743c-13.26428,1.60352 -26.50952,3.38471 -39.73437,5.28845c-12.76257,1.83722 -27.28711,-6.8977 -30.97803,-19.54895c-0.96863,-3.31994 -0.39709,-7.47113 0.59119,-10.91827c6.47705,-22.59259 13.26428,-45.09619 19.94641,-67.63003c1.07483,-3.6243 0.89014,-6.88129 -1.7041,-10.05658c-2.19422,-2.68583 -3.75208,-5.89148 -6.38733,-10.15439c9.76159,-0.26459 18.35095,-0.49738 27.39844,-0.83026z" id="svg_15"/>
  <path fill="#ffffff" d="m264.09992,269.65366c-6.36789,17.26642 -12.65072,34.1438 -19.07498,50.96722c-0.80551,2.1095 -1.92792,4.74817 -3.67886,5.67188c-1.92627,1.01617 -5.28098,1.26391 -7.08829,0.22973c-7.70676,-4.40966 -13.40048,-11.28369 -16.48291,-19.29907c-1.36615,-3.55237 1.27271,-8.80975 2.51758,-13.17224c4.81146,-16.86163 9.79611,-33.67377 14.70068,-50.50894c0.13312,-0.45694 0.08976,-0.9653 0.1597,-1.83576c-8.36771,0.5951 -15.55588,-1.35046 -19.77838,-9.33441c-4.05235,-7.66226 -8.12833,-15.31201 -12.5639,-23.66388c17.52777,3.94977 34.07049,0.42548 50.66186,-0.65494c10.08975,-0.65701 20.16699,-1.50457 30.25348,-2.21517c5.30194,-0.37354 8.38455,3.43472 10.67969,7.05157c4.44308,7.00186 8.05273,14.53259 12.52981,22.80911c-7.3316,0 -13.40982,-0.11624 -19.48077,0.04276c-3.75494,0.09832 -7.55359,0.34698 -11.21719,1.09418c-1.2298,0.25082 -2.60447,2.08572 -3.05869,3.47573c-3.13873,9.60425 -6.05164,19.28229 -9.07883,29.34223z" id="svg_16"/>
  <path fill="#ffffff" d="m1433.01215,261.53952c-6.68359,18.65985 -13.2362,36.93689 -19.91735,55.16687c-0.94837,2.58759 -2.43287,4.99732 -3.82447,7.3996c-2.54138,4.38763 -5.63989,4.97394 -9.59533,1.63898c-3.49915,-2.95014 -6.89234,-6.04865 -10.12122,-9.29181c-7.16309,-7.19477 -5.3092,-15.41284 -2.79663,-23.91584c6.94104,-23.49084 13.71606,-47.03219 20.32507,-70.61843c1.45264,-5.18366 1.9469,-10.63587 2.94678,-16.33091c10.22388,1.67197 20.03979,3.99506 28.0553,10.88269c3.64209,3.12961 5.83594,6.74921 4.16882,12.13895c-3.32751,10.7583 -6.13098,21.67874 -9.24097,32.9299z" id="svg_17"/>
  <path fill="#ffffff" d="m328.30473,296.90598c-0.16516,0.09008 -0.59272,-0.06977 -0.93064,-0.45795c0.28253,-0.08295 0.47541,0.06256 0.93064,0.45795z" id="svg_21"/>
 </g>
</svg>